<svg xmlns="http://www.w3.org/2000/svg" xmlns:xlink="http://www.w3.org/1999/xlink" width="500" zoomAndPan="magnify" viewBox="0 0 375 374.999991" height="500" preserveAspectRatio="xMidYMid meet" version="1.0"><defs><clipPath id="id1"><path d="M 1 102.066406 L 94 102.066406 L 94 197 L 1 197 Z M 1 102.066406 " clip-rule="nonzero"/></clipPath><clipPath id="id2"><path d="M 231 135 L 290 135 L 290 224.316406 L 231 224.316406 Z M 231 135 " clip-rule="nonzero"/></clipPath></defs><g clip-path="url(#id1)"><path fill="#4885ed" d="M 92.945312 145.292969 L 49.535156 145.292969 L 49.535156 158.195312 L 80.324219 158.195312 C 78.796875 176.253906 63.777344 184.007812 49.589844 184.007812 C 48.46875 184.011719 47.351562 183.960938 46.234375 183.855469 C 45.117188 183.75 44.011719 183.585938 42.910156 183.371094 C 41.8125 183.152344 40.722656 182.882812 39.652344 182.558594 C 38.578125 182.234375 37.523438 181.855469 36.488281 181.425781 C 35.453125 180.996094 34.441406 180.515625 33.453125 179.984375 C 32.464844 179.457031 31.507812 178.878906 30.578125 178.25 C 29.644531 177.625 28.75 176.953125 27.882812 176.238281 C 27.019531 175.523438 26.195312 174.769531 25.40625 173.96875 C 24.617188 173.171875 23.867188 172.339844 23.164062 171.464844 C 22.457031 170.59375 21.796875 169.691406 21.179688 168.753906 C 20.5625 167.8125 19.992188 166.847656 19.472656 165.855469 C 18.953125 164.859375 18.484375 163.84375 18.0625 162.800781 C 17.644531 161.757812 17.277344 160.699219 16.960938 159.621094 C 16.648438 158.542969 16.386719 157.453125 16.179688 156.351562 C 15.972656 155.246094 15.824219 154.136719 15.726562 153.015625 C 15.628906 151.898438 15.589844 150.777344 15.605469 149.65625 C 15.605469 130.125 30.699219 115.085938 49.628906 115.085938 C 64.234375 115.085938 72.839844 124.410156 72.839844 124.410156 L 81.851562 115.054688 C 81.851562 115.054688 70.273438 102.144531 49.160156 102.144531 C 22.273438 102.144531 1.472656 124.875 1.472656 149.425781 C 1.472656 173.484375 21.039062 196.945312 49.839844 196.945312 C 75.171875 196.945312 93.71875 179.558594 93.71875 153.851562 C 93.71875 148.425781 92.929688 145.292969 92.929688 145.292969 Z M 92.945312 145.292969 " fill-opacity="1" fill-rule="nonzero"/></g><path fill="#db3236" d="M 128.503906 135.949219 C 110.691406 135.949219 97.925781 149.898438 97.925781 166.164062 C 97.925781 182.671875 110.304688 196.882812 128.714844 196.882812 C 145.375 196.882812 159.023438 184.125 159.023438 166.515625 C 159.023438 146.375 143.144531 135.945312 128.503906 135.945312 Z M 128.679688 147.914062 C 137.4375 147.914062 145.734375 155.011719 145.734375 166.441406 C 145.734375 177.625 137.472656 184.921875 128.636719 184.921875 C 118.929688 184.921875 111.300781 177.136719 111.300781 166.351562 C 111.300781 155.792969 118.859375 147.914062 128.707031 147.914062 Z M 128.679688 147.914062 " fill-opacity="1" fill-rule="nonzero"/><path fill="#f4c20d" d="M 195.007812 135.949219 C 177.191406 135.949219 164.425781 149.898438 164.425781 166.164062 C 164.425781 182.671875 176.804688 196.882812 195.214844 196.882812 C 211.875 196.882812 225.527344 184.125 225.527344 166.515625 C 225.527344 146.375 209.648438 135.945312 195.007812 135.945312 Z M 195.179688 147.914062 C 203.9375 147.914062 212.238281 155.011719 212.238281 166.441406 C 212.238281 177.625 203.972656 184.921875 195.136719 184.921875 C 185.429688 184.921875 177.800781 177.136719 177.800781 166.351562 C 177.800781 155.792969 185.359375 147.914062 195.207031 147.914062 Z M 195.179688 147.914062 " fill-opacity="1" fill-rule="nonzero"/><g clip-path="url(#id2)"><path fill="#4885ed" d="M 260.230469 135.980469 C 243.878906 135.980469 231.03125 150.324219 231.03125 166.425781 C 231.03125 184.765625 245.929688 196.925781 259.945312 196.925781 C 268.613281 196.925781 273.226562 193.476562 276.589844 189.523438 L 276.589844 195.53125 C 276.589844 206.042969 270.214844 212.339844 260.597656 212.339844 C 251.308594 212.339844 246.648438 205.417969 244.996094 201.492188 L 233.304688 206.355469 C 237.453125 215.140625 245.800781 224.300781 260.695312 224.300781 C 276.992188 224.300781 289.339844 214.046875 289.339844 192.53125 L 289.339844 137.8125 L 276.636719 137.8125 L 276.636719 142.972656 C 272.71875 138.734375 267.351562 135.980469 260.238281 135.980469 Z M 261.410156 147.929688 C 269.425781 147.929688 277.65625 154.785156 277.65625 166.492188 C 277.65625 178.394531 269.441406 184.953125 261.234375 184.953125 C 252.515625 184.953125 244.40625 177.867188 244.40625 166.605469 C 244.40625 154.90625 252.832031 147.925781 261.410156 147.925781 Z M 261.410156 147.929688 " fill-opacity="1" fill-rule="nonzero"/></g><path fill="#db3236" d="M 346.117188 135.910156 C 330.695312 135.910156 317.746094 148.203125 317.746094 166.332031 C 317.746094 185.523438 332.179688 196.90625 347.5625 196.90625 C 360.429688 196.90625 368.363281 189.855469 373.042969 183.535156 L 362.527344 176.527344 C 359.800781 180.761719 355.238281 184.914062 347.628906 184.914062 C 339.078125 184.914062 335.144531 180.226562 332.710938 175.675781 L 373.492188 158.726562 L 371.410156 153.761719 C 367.472656 144.035156 358.28125 135.910156 346.121094 135.910156 Z M 346.648438 147.628906 C 352.203125 147.628906 356.203125 150.585938 357.902344 154.136719 L 330.664062 165.539062 C 329.484375 156.710938 337.839844 147.628906 346.613281 147.628906 Z M 346.648438 147.628906 " fill-opacity="1" fill-rule="nonzero"/><path fill="#3cba54" d="M 298.269531 195.101562 L 311.667969 195.101562 L 311.667969 105.296875 L 298.269531 105.296875 Z M 298.269531 195.101562 " fill-opacity="1" fill-rule="nonzero"/></svg>